<svg width="158" height="60" viewBox="0 0 158 60" fill="none" xmlns="http://www.w3.org/2000/svg">
<path d="M92.5552 8.84146C94.0649 7.49977 96.1818 7.2025 98.1267 7.21322C100.053 7.24 102.132 7.70062 103.505 9.14944C104.665 10.2715 105.082 11.9266 105.106 13.4932C108.072 13.4852 111.037 13.4932 114.006 13.4879C114.062 10.6598 113.125 7.81042 111.346 5.60104C109.904 3.76658 107.927 2.39543 105.786 1.50097C103.199 0.411006 100.362 0.0173343 97.5679 0.0735731C94.7419 0.140524 91.897 0.654707 89.3154 1.83036C87.3463 2.71679 85.5142 3.99957 84.222 5.74833C81.5518 9.21103 81.3799 14.3555 83.7654 18.0111C84.9688 19.8669 86.7096 21.3184 88.5928 22.4486C90.7553 23.7367 93.1193 24.6365 95.4887 25.4721C97.8097 26.2514 100.174 26.9798 102.325 28.1796C103.08 28.5973 103.79 29.1356 104.27 29.8614C105.031 31.0236 105.197 32.5099 104.904 33.8463C104.647 34.9978 103.841 35.97 102.828 36.5457C101.375 37.3893 99.6472 37.6009 97.9951 37.558C95.803 37.558 93.439 37.1751 91.7251 35.6995C90.2261 34.398 89.6619 32.3359 89.6888 30.413C86.6989 30.4104 83.7089 30.413 80.7189 30.413C80.7083 32.9545 81.3637 35.5281 82.7875 37.6491C84.0528 39.5853 85.8768 41.1118 87.9104 42.1937C92.2812 44.5343 97.4417 45.0619 102.301 44.3629C104.923 43.9693 107.524 43.0962 109.665 41.4974C111.148 40.4155 112.367 38.9587 113.095 37.2742C113.643 35.753 113.976 34.1462 113.944 32.526C114.006 30.4104 113.493 28.2679 112.386 26.4549C111.225 24.5294 109.463 23.0404 107.559 21.8862C104.998 20.3463 102.178 19.2965 99.3275 18.4342C97.3262 17.8289 95.349 17.0925 93.5464 16.0266C92.5552 15.4348 91.6337 14.6046 91.2496 13.4852C90.7177 11.8596 91.2523 9.95017 92.5605 8.84414L92.5552 8.84146Z" fill="white"/>
<path d="M53.0586 0.0710374C47.4844 14.902 41.8875 29.8437 36.3105 44.6747C39.5852 44.68 42.8626 44.6747 46.1373 44.6747C47.1581 41.6297 48.2151 38.4794 49.2413 35.4345C54.649 35.4399 60.0593 35.4345 65.467 35.4372C66.4932 38.4848 67.5798 41.6324 68.6141 44.6773C71.8888 44.672 75.1635 44.6773 78.4355 44.6747C72.8371 29.841 67.1997 14.902 61.5986 0.0683594C58.751 0.0683594 55.9035 0.0683594 53.0559 0.0683594L53.0586 0.0710374ZM51.7477 28.0003C53.604 22.446 55.4522 16.8891 57.3273 11.3429C59.197 16.8998 61.0801 22.4514 62.9606 28.003C59.2212 28.003 55.4844 28.0056 51.745 28.0003H51.7477Z" fill="white"/>
<path d="M148.478 0.00267804C148.478 6.01219 148.478 12.1304 148.478 18.1372C142.485 18.1372 136.497 18.1372 130.506 18.1372C130.506 12.1277 130.506 6.00952 130.506 0C127.436 0 124.365 0 121.295 0C121.298 14.8229 121.295 29.7545 121.295 44.5775C124.365 44.5775 127.433 44.5775 130.504 44.5775C130.506 38.2198 130.504 31.8622 130.504 25.5045C136.492 25.5045 142.482 25.5045 148.473 25.5045C148.473 31.8595 148.473 38.2198 148.473 44.5775C151.53 44.5775 154.59 44.5775 157.647 44.5775C157.647 29.7545 157.647 14.8256 157.647 0C154.587 0.00535607 151.527 3.60971e-09 148.47 0.00267804H148.478Z" fill="white"/>
<path d="M33.014 13.3887C31.6816 9.43324 29.1483 5.8286 25.6695 3.47728C22.3196 1.16614 18.239 0.057429 14.1906 0.00119024C9.4626 -0.0014878 4.7319 0.00119024 0.00119394 0.00119024C-0.00149243 6.88107 0.00119394 13.7609 0.00119394 20.6381C11.4102 20.6381 22.8192 20.6381 34.2309 20.6381C34.1772 18.1824 33.8038 15.7213 33.0167 13.3887H33.014Z" fill="white"/>
<path d="M15.5343 25.6894C15.5531 24.8218 14.8036 24.0264 13.9278 24.0451C9.28847 24.0425 4.64642 24.0451 0.00705332 24.0451C0.00436695 30.925 0.00705332 37.8049 0.00705332 44.6821C4.78074 44.6821 9.55442 44.6821 14.3281 44.6821C14.7364 44.6821 15.1394 44.6526 15.545 44.6366C15.537 38.3217 15.5558 32.0043 15.537 25.6894H15.5343Z" fill="white"/>
<path d="M18.8853 25.0677C18.6703 25.5069 18.7456 26.0077 18.7348 26.479C18.7375 32.427 18.7348 38.3749 18.7348 44.3255C23.2426 43.3426 27.4306 40.7637 30.1465 37.0118C32.8893 33.2839 34.1734 28.6322 34.2459 24.0447C29.6898 24.042 25.1338 24.0447 20.5777 24.042C19.8765 24.0179 19.1781 24.425 18.8853 25.0677Z" fill="white"/>
<path d="M22.2179 53.3702C23.3731 52.6311 24.8936 52.7168 26.1078 53.2738C25.9735 53.5925 25.8392 53.9085 25.7021 54.2245C25.0118 53.8871 24.2112 53.7157 23.4537 53.9139C22.8224 54.0986 22.3549 54.6423 22.1642 55.2582C21.9412 55.9867 21.9439 56.7794 22.1212 57.5185C22.2797 58.1934 22.7982 58.8173 23.494 58.962C24.2864 59.1253 25.0923 58.9566 25.8499 58.729V59.7064C24.6383 60.06 23.2038 60.2126 22.097 59.4815C21.1219 58.8173 20.8022 57.5613 20.8049 56.4419C20.7941 55.2904 21.1998 54.0183 22.2152 53.3702H22.2179Z" fill="white"/>
<path d="M153.847 53.3702C155.002 52.6311 156.522 52.7168 157.737 53.2738C157.602 53.5925 157.468 53.9085 157.331 54.2245C156.641 53.8871 155.84 53.7157 155.083 53.9139C154.451 54.0986 153.984 54.6423 153.793 55.2582C153.57 55.9867 153.573 56.7794 153.75 57.5185C153.909 58.1934 154.427 58.8173 155.123 58.962C155.915 59.1253 156.721 58.9566 157.479 58.729V59.7064C156.267 60.06 154.833 60.2126 153.726 59.4815C152.751 58.8173 152.431 57.5613 152.434 56.4419C152.423 55.2904 152.829 54.0183 153.844 53.3702H153.847Z" fill="white"/>
<path d="M57.183 52.9287C58.1984 52.7386 59.3589 52.8029 60.1944 53.4804C61.0406 54.1312 61.3603 55.2479 61.3549 56.2763C61.3871 57.2993 61.1588 58.4134 60.3986 59.1498C59.5228 60.0014 58.1716 60.1166 57.0352 59.8381C56.1111 59.6158 55.367 58.874 55.0903 57.9742C54.7599 56.919 54.7626 55.7514 55.1252 54.707C55.4449 53.8098 56.2427 53.1055 57.183 52.9287ZM57.4543 53.8875C56.737 54.0749 56.2589 54.7632 56.146 55.4702C55.9902 56.3968 56.0063 57.4359 56.5221 58.2554C57.0433 59.0427 58.1474 59.1471 58.9775 58.8579C59.7646 58.5312 60.1138 57.6421 60.1541 56.844C60.2025 55.9951 60.1756 55.031 59.5873 54.3588C59.0608 53.767 58.1796 53.7188 57.4543 53.8875Z" fill="white"/>
<path d="M79.5364 52.9049C80.6109 52.7282 81.8493 52.8594 82.6525 53.6709C83.5874 54.5921 83.6922 56.0195 83.539 57.2514C83.4128 58.2583 82.8299 59.2465 81.8789 59.6697C80.9628 60.0633 79.891 60.0687 78.9561 59.7366C78.0427 59.4045 77.4168 58.5368 77.2261 57.6049C77.0058 56.5578 77.0327 55.4169 77.4867 54.4368C77.8601 53.62 78.6606 53.0496 79.5417 52.9049M79.6922 53.8824C78.8675 54.0913 78.3866 54.9322 78.3275 55.7356C78.2657 56.6194 78.2523 57.6049 78.8137 58.3467C79.3349 59.0376 80.3369 59.118 81.1159 58.893C81.9138 58.6359 82.2926 57.7736 82.3651 56.997C82.4484 56.1052 82.4242 55.0902 81.8225 54.3671C81.2959 53.778 80.4202 53.7217 79.6975 53.8824H79.6922Z" fill="white"/>
<path d="M90.5142 53.6617C91.7821 52.6093 93.6465 52.6655 95.1079 53.2574C94.9735 53.5707 94.8419 53.8813 94.7156 54.1974C93.8345 53.8278 92.7842 53.6403 91.8869 54.0634C91.1025 54.433 90.67 55.29 90.627 56.1282C90.5625 57.0227 90.7318 58.0671 91.4974 58.6402C92.2334 59.1705 93.2005 59.0607 94.0414 58.9107C94.0494 58.3028 94.0467 57.6922 94.0467 57.0843C93.5713 57.0843 93.0985 57.0843 92.623 57.0843C92.623 56.7602 92.623 56.4362 92.623 56.1121C93.4692 56.1121 94.3127 56.1121 95.1589 56.1121C95.1616 57.2798 95.1589 58.4501 95.1589 59.6204C93.9742 59.9739 92.674 60.1265 91.4678 59.7971C90.4389 59.5106 89.7324 58.5572 89.5256 57.5395C89.2516 56.2032 89.4101 54.5991 90.5088 53.6564L90.5142 53.6617Z" fill="white"/>
<path d="M119.113 52.9548C120.082 52.695 121.117 52.8879 122.025 53.2735C121.904 53.5815 121.783 53.8895 121.659 54.1974C120.958 53.9189 120.174 53.7047 119.427 53.9109C118.782 54.1064 118.691 55.0598 119.228 55.424C119.983 55.9649 120.982 56.0935 121.662 56.7549C122.124 57.1915 122.151 57.9038 122.054 58.493C121.917 59.2321 121.24 59.7356 120.539 59.8883C119.58 60.0945 118.554 60.0195 117.648 59.6419C117.648 59.2884 117.648 58.9322 117.651 58.5787C118.508 58.9322 119.478 59.1786 120.394 58.9268C121.02 58.7474 121.202 57.8503 120.708 57.4352C119.991 56.8353 118.965 56.7496 118.299 56.0747C117.767 55.5873 117.635 54.7786 117.836 54.109C118.008 53.5279 118.551 53.1316 119.11 52.9575L119.113 52.9548Z" fill="white"/>
<path d="M0 52.8359C1.74883 52.8359 3.49766 52.8359 5.24649 52.8359V53.8054C4.56415 53.8054 3.88181 53.8054 3.19947 53.8054V59.9758C2.818 59.9758 2.43385 59.9758 2.05239 59.9758C2.05239 57.9833 2.05239 55.7978 2.05239 53.8081C1.36736 53.8054 0.685025 53.8081 0 53.8081V52.8359Z" fill="white"/>
<path d="M11.0605 52.8359C12.3581 52.8359 13.6556 52.8359 14.9531 52.8359C14.9531 53.1466 14.9531 53.4572 14.9531 53.7706C14.037 53.7679 13.1237 53.7706 12.2103 53.7706C12.2103 54.4079 12.2103 55.2493 12.2103 55.8867C13.078 55.8867 13.9457 55.8867 14.8134 55.8867C14.8134 56.2 14.8134 56.5133 14.8134 56.8293C13.9457 56.8293 13.078 56.8293 12.2103 56.8293C12.2103 57.5471 12.2103 58.2648 12.2103 58.9825H14.9907V59.9921C13.6798 59.9921 12.3715 59.9921 11.0605 59.9921V52.8413V52.8359Z" fill="white"/>
<path d="M31.9219 52.8357C32.3033 52.8357 32.6875 52.8357 33.0716 52.8357C33.0716 53.773 33.0716 54.9194 33.0716 55.8567C34.1381 55.8567 35.2046 55.8567 36.2711 55.8567V52.8357C36.6526 52.833 37.034 52.8357 37.4182 52.8357C37.4182 55.1522 37.4182 57.6724 37.4182 59.9889C37.0367 59.9889 36.6526 59.9889 36.2711 59.9889C36.2711 58.9472 36.2711 57.9054 36.2711 56.8637C35.2046 56.8637 34.1381 56.8637 33.0716 56.861C33.0716 57.9028 33.0716 58.9445 33.0716 59.9889C32.6875 59.9889 32.306 59.9889 31.9219 59.9889V52.833V52.8357Z" fill="white"/>
<path d="M43.2324 52.8384C43.6945 52.8384 44.1592 52.8384 44.624 52.8384C45.7603 54.6755 46.8886 56.7246 48.033 58.5537C47.9497 56.7192 47.9551 54.6728 47.9604 52.8357C48.3177 52.8357 48.6777 52.8357 49.035 52.8357V59.9891C48.5702 59.9891 48.1055 59.9891 47.6381 59.9891C46.4802 58.1279 45.3358 56.2559 44.1726 54.3974C44.3043 56.2586 44.2183 58.1252 44.2425 59.9891C43.904 59.9891 43.5682 59.9891 43.2324 59.9891V52.833V52.8384Z" fill="white"/>
<path d="M140.887 52.8384C141.349 52.8384 141.814 52.8384 142.278 52.8384C143.415 54.6755 144.543 56.7869 145.687 58.616C145.604 56.7815 145.609 54.6728 145.615 52.8357C145.972 52.8357 146.332 52.8357 146.689 52.8357L146.689 59.9756C146.225 59.9756 145.76 59.9756 145.292 59.9756C144.135 58.1143 142.99 56.3182 141.827 54.4597C141.959 56.3209 141.873 58.1117 141.897 59.9756C141.558 59.9756 141.223 59.9756 140.887 59.9756L140.887 52.833V52.8384Z" fill="white"/>
<path d="M67.1746 52.8359C67.556 52.8359 67.9402 52.8359 68.3243 52.8359C68.3243 54.815 68.3243 57.0007 68.3243 58.9798C69.3075 58.9798 70.2934 58.9771 71.2767 58.9798C71.2767 59.3012 71.2767 59.6252 71.2767 59.9493H67.1719V52.8359H67.1746Z" fill="white"/>
<path d="M100.975 52.8386C101.356 52.8386 101.74 52.8386 102.124 52.8386V59.9894C101.74 59.9894 101.359 59.9894 100.975 59.9894V52.8359V52.8386Z" fill="white"/>
<path d="M134.023 52.8386C134.405 52.8386 134.789 52.8386 135.173 52.8386V59.9758C134.789 59.9758 134.408 59.9758 134.023 59.9758V52.8359V52.8386Z" fill="white"/>
<path d="M107.94 52.8386C109.238 52.8359 110.535 52.8386 111.833 52.8386C111.833 53.1493 111.833 53.4626 111.833 53.7759C110.906 53.7732 109.976 53.7759 109.05 53.7759C109.05 54.4133 109.05 55.2547 109.05 55.892C109.92 55.892 110.79 55.892 111.661 55.892C111.658 56.2027 111.658 56.5187 111.661 56.8293C110.79 56.8293 109.92 56.8293 109.05 56.8293V58.9798C109.976 58.9798 110.903 58.9798 111.83 58.9798C111.83 59.3172 111.83 59.652 111.83 59.9868C110.533 59.9868 109.235 59.9868 107.938 59.9868V52.8359L107.94 52.8386Z" fill="white"/>
</svg>
